<svg id="ec8mNgzQwls1" xmlns="http://www.w3.org/2000/svg" xmlns:xlink="http://www.w3.org/1999/xlink" viewBox="0 0 6000 3000" shape-rendering="geometricPrecision" text-rendering="geometricPrecision"><g transform="translate(.003812 113.536958)"><g opacity="0.3"><g><line x1="97.498" y1="0" x2="97.498" y2="3000" fill="none" stroke="#fff" stroke-miterlimit="10"/><line x1="290.998" y1="0" x2="290.998" y2="3000" fill="none" stroke="#fff" stroke-miterlimit="10"/><line x1="484.498" y1="0" x2="484.498" y2="3000" fill="none" stroke="#fff" stroke-miterlimit="10"/><line x1="677.998" y1="0" x2="677.998" y2="3000" fill="none" stroke="#fff" stroke-miterlimit="10"/><line x1="871.498" y1="0" x2="871.498" y2="3000" fill="none" stroke="#fff" stroke-miterlimit="10"/><line x1="1064.998" y1="0" x2="1064.998" y2="3000" fill="none" stroke="#fff" stroke-miterlimit="10"/><line x1="1258.498" y1="0" x2="1258.498" y2="3000" fill="none" stroke="#fff" stroke-miterlimit="10"/><line x1="1451.998" y1="0" x2="1451.998" y2="3000" fill="none" stroke="#fff" stroke-miterlimit="10"/><line x1="1645.498" y1="0" x2="1645.498" y2="3000" fill="none" stroke="#fff" stroke-miterlimit="10"/><line x1="1838.998" y1="0" x2="1838.998" y2="3000" fill="none" stroke="#fff" stroke-miterlimit="10"/><line x1="2032.498" y1="0" x2="2032.498" y2="3000" fill="none" stroke="#fff" stroke-miterlimit="10"/><line x1="2225.998" y1="0" x2="2225.998" y2="3000" fill="none" stroke="#fff" stroke-miterlimit="10"/><line x1="2419.498" y1="0" x2="2419.498" y2="3000" fill="none" stroke="#fff" stroke-miterlimit="10"/><line x1="2612.998" y1="0" x2="2612.998" y2="3000" fill="none" stroke="#fff" stroke-miterlimit="10"/><line x1="2806.498" y1="0" x2="2806.498" y2="3000" fill="none" stroke="#fff" stroke-miterlimit="10"/><line x1="2999.998" y1="0" x2="2999.998" y2="3000" fill="none" stroke="#fff" stroke-miterlimit="10"/><line x1="3193.498" y1="0" x2="3193.498" y2="3000" fill="none" stroke="#fff" stroke-miterlimit="10"/><line x1="3386.998" y1="0" x2="3386.998" y2="3000" fill="none" stroke="#fff" stroke-miterlimit="10"/><line x1="3580.498" y1="0" x2="3580.498" y2="3000" fill="none" stroke="#fff" stroke-miterlimit="10"/><line x1="3773.998" y1="0" x2="3773.998" y2="3000" fill="none" stroke="#fff" stroke-miterlimit="10"/><line x1="3967.498" y1="0" x2="3967.498" y2="3000" fill="none" stroke="#fff" stroke-miterlimit="10"/><line x1="4160.998" y1="0" x2="4160.998" y2="3000" fill="none" stroke="#fff" stroke-miterlimit="10"/><line x1="4354.498" y1="0" x2="4354.498" y2="3000" fill="none" stroke="#fff" stroke-miterlimit="10"/><line x1="4547.998" y1="0" x2="4547.998" y2="3000" fill="none" stroke="#fff" stroke-miterlimit="10"/><line x1="4741.498" y1="0" x2="4741.498" y2="3000" fill="none" stroke="#fff" stroke-miterlimit="10"/><line x1="4934.998" y1="0" x2="4934.998" y2="3000" fill="none" stroke="#fff" stroke-miterlimit="10"/><line x1="5128.498" y1="0" x2="5128.498" y2="3000" fill="none" stroke="#fff" stroke-miterlimit="10"/><line x1="5321.998" y1="0" x2="5321.998" y2="3000" fill="none" stroke="#fff" stroke-miterlimit="10"/><line x1="5515.498" y1="0" x2="5515.498" y2="3000" fill="none" stroke="#fff" stroke-miterlimit="10"/><line x1="5708.998" y1="0" x2="5708.998" y2="3000" fill="none" stroke="#fff" stroke-miterlimit="10"/><line x1="5902.498" y1="0" x2="5902.498" y2="3000" fill="none" stroke="#fff" stroke-miterlimit="10"/></g><g><line x1="5999.996" y1="145.5" x2="0.004" y2="145.5" fill="none" stroke="#fff" stroke-miterlimit="10"/><line x1="5999.996" y1="339" x2="0.004" y2="339" fill="none" stroke="#fff" stroke-miterlimit="10"/><line x1="5999.996" y1="532.5" x2="0.004" y2="532.5" fill="none" stroke="#fff" stroke-miterlimit="10"/><line x1="5999.996" y1="726" x2="0.004" y2="726" fill="none" stroke="#fff" stroke-miterlimit="10"/><line x1="5999.996" y1="919.5" x2="0.004" y2="919.5" fill="none" stroke="#fff" stroke-miterlimit="10"/><line x1="5999.996" y1="1113" x2="0.004" y2="1113" fill="none" stroke="#fff" stroke-miterlimit="10"/><line x1="5999.996" y1="1306.5" x2="0.004" y2="1306.5" fill="none" stroke="#fff" stroke-miterlimit="10"/><line x1="5999.996" y1="1500" x2="0.004" y2="1500" fill="none" stroke="#fff" stroke-miterlimit="10"/><line x1="5999.996" y1="1693.5" x2="0.004" y2="1693.5" fill="none" stroke="#fff" stroke-miterlimit="10"/><line x1="5999.996" y1="1887" x2="0.004" y2="1887" fill="none" stroke="#fff" stroke-miterlimit="10"/><line x1="5999.996" y1="2080.5" x2="0.004" y2="2080.5" fill="none" stroke="#fff" stroke-miterlimit="10"/><line x1="5999.996" y1="2274" x2="0.004" y2="2274" fill="none" stroke="#fff" stroke-miterlimit="10"/><line x1="5999.996" y1="2467.5" x2="0.004" y2="2467.5" fill="none" stroke="#fff" stroke-miterlimit="10"/><line x1="5999.996" y1="2661" x2="0.004" y2="2661" fill="none" stroke="#fff" stroke-miterlimit="10"/><line x1="5999.996" y1="2854.5" x2="0.004" y2="2854.5" fill="none" stroke="#fff" stroke-miterlimit="10"/></g></g><g transform="matrix(3.785978 0 0 2.750379-1856.506643-1160.852484)"><g opacity="0.1"><rect width="1505.43" height="904.951" rx="0" ry="0" transform="translate(518.975 500.316)" fill="#fff"/></g><g><polygon points="1271.691,1411.433 518.871,1411.433 518.871,1310.568 536.584,1292.855 536.584,1193.84 515.957,1173.212 515.957,545.401 567.166,494.194 811.155,494.194 845.028,528.066 1271.691,528.066 1271.691,540.4 839.919,540.4 806.046,506.528 572.275,506.528 528.291,550.508 528.291,1168.105 548.918,1188.733 548.918,1297.962 531.205,1315.675 531.205,1399.1 1271.691,1399.1" fill="#fff"/></g><g><polygon points="2027.309,1411.433 1265.871,1411.433 1265.871,1399.1 2014.975,1399.1 2014.975,1315.675 1997.261,1297.962 1997.261,1188.733 2017.888,1168.105 2017.888,550.508 1973.905,506.528 1740.134,506.528 1706.26,540.4 1260.937,540.4 1260.937,528.066 1701.15,528.066 1735.025,494.194 1979.014,494.194 2030.221,545.401 2030.221,1173.212 2009.595,1193.84 2009.595,1292.855 2027.309,1310.568" fill="#fff"/></g><g><polygon points="872.422,507.496 844.054,479.128 876.122,447.06 1681.521,447.06 1710.505,476.045 1679.054,507.496" fill="#fff"/></g><g><polygon points="962.811,1405.267 983.052,1425.508 1512.548,1425.508 1533.945,1404.111" fill="#fff"/></g><g opacity="0.2"><polygon points="1102.36,1404.111 1054.638,1356.389 649.18,1356.389 605.232,1312.441 605.232,1063.752 553.203,1011.723 553.203,748.006 525.858,720.662 525.858,1169.823 545.584,1189.548 545.584,1295.628 521.802,1319.41 521.802,1404.111" fill="#fff"/></g><g opacity="0.2"><polygon points="1446.839,1404.111 1494.561,1356.389 1900.019,1356.389 1943.966,1312.441 1943.966,1063.752 1995.996,1011.723 1995.996,748.006 2023.34,720.662 2023.34,1169.823 2003.615,1189.548 2003.615,1295.628 2027.397,1319.41 2027.397,1404.111" fill="#fff"/></g></g></g></svg>
