<svg id="eU6OLaXo5uQ1" xmlns="http://www.w3.org/2000/svg" xmlns:xlink="http://www.w3.org/1999/xlink" viewBox="0 0 6000 3000" shape-rendering="geometricPrecision" text-rendering="geometricPrecision"><g transform="matrix(3.59829 0 0 2.836763-7677.444067-2727.305548)"><rect width="6000" height="3000" rx="0" ry="0" transform="matrix(.26287 0 0 0.34588 2196.778491 981.31792)" fill="#181818"/><g transform="translate(1725.763991-582.20758)"><g><g><path d="M2018.508,2540.985h-1517.767v-917.285h1517.767v917.285ZM513.075,2528.651h1493.099v-892.617h-1493.099v892.617Z" fill="#fff"/></g><g opacity="0.1"><rect width="1505.43" height="904.951" rx="0" ry="0" transform="translate(506.909 1629.87)" fill="#fff"/></g><g><polygon points="2017.824,2003.839 2005.49,2003.839 2005.49,1695.053 1983.201,1672.765 1561.384,1672.765 1524.383,1635.764 1300.7,1635.764 1300.7,1623.43 1529.492,1623.43 1566.494,1660.431 1988.311,1660.431 2017.824,1689.946" fill="#fff"/></g><g><polygon points="1217.358,2540.361 988.566,2540.361 951.564,2503.359 529.747,2503.359 500.234,2473.845 500.234,2159.951 512.568,2159.951 512.568,2468.738 534.857,2491.026 956.674,2491.026 993.675,2528.027 1217.358,2528.027" fill="#fff"/></g><g><polygon points="512.568,2003.839 500.234,2003.839 500.234,1689.946 529.747,1660.431 951.564,1660.431 988.566,1623.43 1217.358,1623.43 1217.358,1635.764 993.675,1635.764 956.674,1672.765 534.857,1672.765 512.568,1695.053" fill="#fff"/></g><g><polygon points="1529.492,2540.361 1300.7,2540.361 1300.7,2528.027 1524.383,2528.027 1561.384,2491.026 1983.201,2491.026 2005.49,2468.738 2005.49,2159.951 2017.824,2159.951 2017.824,2473.845 1988.311,2503.359 1566.494,2503.359" fill="#fff"/></g></g><g><polygon points="1211.634,1629.596 1259.141,1677.104 1307.108,1629.137" fill="#fff"/></g><g><polygon points="1307.108,2534.307 1259.601,2486.8 1211.634,2534.767" fill="#fff"/></g><g><polygon points="2011.657,1825.748 1976.182,1861.223 1976.182,2273.29 2012.597,2309.704" fill="#fff"/></g><g><polygon points="508.163,2308.471 543.638,2272.996 543.638,1860.929 507.223,1824.515" fill="#fff"/></g><g opacity="0.2"><polygon points="1422.334,1629.817 1530.167,1737.65 1894.896,1737.65 1944.408,1787.161 1944.408,1935.343 2014.622,2005.558 2014.622,1629.464" fill="#fff"/></g><g opacity="0.2"><polygon points="1099.452,2538.027 991.619,2430.194 626.891,2430.194 577.379,2380.682 577.379,2232.5 507.164,2162.286 507.164,2538.379" fill="#fff"/></g><g opacity="0.2"><polygon points="1099.452,1629.817 991.619,1737.65 626.891,1737.65 577.379,1787.161 577.379,1935.343 507.164,2005.558 507.164,1629.464" fill="#fff"/></g><g opacity="0.2"><polygon points="1422.334,2538.027 1530.167,2430.194 1894.896,2430.194 1944.408,2380.682 1944.408,2232.5 2014.622,2162.286 2014.622,2538.379" fill="#fff"/></g></g></g><g opacity="0.3"><g><line x1="97.498" y1="0" x2="97.498" y2="3000" fill="none" stroke="#fff" stroke-miterlimit="10"/><line x1="290.998" y1="0" x2="290.998" y2="3000" fill="none" stroke="#fff" stroke-miterlimit="10"/><line x1="484.498" y1="0" x2="484.498" y2="3000" fill="none" stroke="#fff" stroke-miterlimit="10"/><line x1="677.998" y1="0" x2="677.998" y2="3000" fill="none" stroke="#fff" stroke-miterlimit="10"/><line x1="871.498" y1="0" x2="871.498" y2="3000" fill="none" stroke="#fff" stroke-miterlimit="10"/><line x1="1064.998" y1="0" x2="1064.998" y2="3000" fill="none" stroke="#fff" stroke-miterlimit="10"/><line x1="1258.498" y1="0" x2="1258.498" y2="3000" fill="none" stroke="#fff" stroke-miterlimit="10"/><line x1="1451.998" y1="0" x2="1451.998" y2="3000" fill="none" stroke="#fff" stroke-miterlimit="10"/><line x1="1645.498" y1="0" x2="1645.498" y2="3000" fill="none" stroke="#fff" stroke-miterlimit="10"/><line x1="1838.998" y1="0" x2="1838.998" y2="3000" fill="none" stroke="#fff" stroke-miterlimit="10"/><line x1="2032.498" y1="0" x2="2032.498" y2="3000" fill="none" stroke="#fff" stroke-miterlimit="10"/><line x1="2225.998" y1="0" x2="2225.998" y2="3000" fill="none" stroke="#fff" stroke-miterlimit="10"/><line x1="2419.498" y1="0" x2="2419.498" y2="3000" fill="none" stroke="#fff" stroke-miterlimit="10"/><line x1="2612.998" y1="0" x2="2612.998" y2="3000" fill="none" stroke="#fff" stroke-miterlimit="10"/><line x1="2806.498" y1="0" x2="2806.498" y2="3000" fill="none" stroke="#fff" stroke-miterlimit="10"/><line x1="2999.998" y1="0" x2="2999.998" y2="3000" fill="none" stroke="#fff" stroke-miterlimit="10"/><line x1="3193.498" y1="0" x2="3193.498" y2="3000" fill="none" stroke="#fff" stroke-miterlimit="10"/><line x1="3386.998" y1="0" x2="3386.998" y2="3000" fill="none" stroke="#fff" stroke-miterlimit="10"/><line x1="3580.498" y1="0" x2="3580.498" y2="3000" fill="none" stroke="#fff" stroke-miterlimit="10"/><line x1="3773.998" y1="0" x2="3773.998" y2="3000" fill="none" stroke="#fff" stroke-miterlimit="10"/><line x1="3967.498" y1="0" x2="3967.498" y2="3000" fill="none" stroke="#fff" stroke-miterlimit="10"/><line x1="4160.998" y1="0" x2="4160.998" y2="3000" fill="none" stroke="#fff" stroke-miterlimit="10"/><line x1="4354.498" y1="0" x2="4354.498" y2="3000" fill="none" stroke="#fff" stroke-miterlimit="10"/><line x1="4547.998" y1="0" x2="4547.998" y2="3000" fill="none" stroke="#fff" stroke-miterlimit="10"/><line x1="4741.498" y1="0" x2="4741.498" y2="3000" fill="none" stroke="#fff" stroke-miterlimit="10"/><line x1="4934.998" y1="0" x2="4934.998" y2="3000" fill="none" stroke="#fff" stroke-miterlimit="10"/><line x1="5128.498" y1="0" x2="5128.498" y2="3000" fill="none" stroke="#fff" stroke-miterlimit="10"/><line x1="5321.998" y1="0" x2="5321.998" y2="3000" fill="none" stroke="#fff" stroke-miterlimit="10"/><line x1="5515.498" y1="0" x2="5515.498" y2="3000" fill="none" stroke="#fff" stroke-miterlimit="10"/><line x1="5708.998" y1="0" x2="5708.998" y2="3000" fill="none" stroke="#fff" stroke-miterlimit="10"/><line x1="5902.498" y1="0" x2="5902.498" y2="3000" fill="none" stroke="#fff" stroke-miterlimit="10"/></g><g><line x1="5999.996" y1="145.5" x2="0.004" y2="145.5" fill="none" stroke="#fff" stroke-miterlimit="10"/><line x1="5999.996" y1="339" x2="0.004" y2="339" fill="none" stroke="#fff" stroke-miterlimit="10"/><line x1="5999.996" y1="532.5" x2="0.004" y2="532.5" fill="none" stroke="#fff" stroke-miterlimit="10"/><line x1="5999.996" y1="726" x2="0.004" y2="726" fill="none" stroke="#fff" stroke-miterlimit="10"/><line x1="5999.996" y1="919.5" x2="0.004" y2="919.5" fill="none" stroke="#fff" stroke-miterlimit="10"/><line x1="5999.996" y1="1113" x2="0.004" y2="1113" fill="none" stroke="#fff" stroke-miterlimit="10"/><line x1="5999.996" y1="1306.5" x2="0.004" y2="1306.5" fill="none" stroke="#fff" stroke-miterlimit="10"/><line x1="5999.996" y1="1500" x2="0.004" y2="1500" fill="none" stroke="#fff" stroke-miterlimit="10"/><line x1="5999.996" y1="1693.5" x2="0.004" y2="1693.5" fill="none" stroke="#fff" stroke-miterlimit="10"/><line x1="5999.996" y1="1887" x2="0.004" y2="1887" fill="none" stroke="#fff" stroke-miterlimit="10"/><line x1="5999.996" y1="2080.5" x2="0.004" y2="2080.5" fill="none" stroke="#fff" stroke-miterlimit="10"/><line x1="5999.996" y1="2274" x2="0.004" y2="2274" fill="none" stroke="#fff" stroke-miterlimit="10"/><line x1="5999.996" y1="2467.5" x2="0.004" y2="2467.5" fill="none" stroke="#fff" stroke-miterlimit="10"/><line x1="5999.996" y1="2661" x2="0.004" y2="2661" fill="none" stroke="#fff" stroke-miterlimit="10"/><line x1="5999.996" y1="2854.5" x2="0.004" y2="2854.5" fill="none" stroke="#fff" stroke-miterlimit="10"/></g></g></svg>
