<svg id="epTQ7cN8tAg1" xmlns="http://www.w3.org/2000/svg" xmlns:xlink="http://www.w3.org/1999/xlink" viewBox="0 0 6000 3000" shape-rendering="geometricPrecision" text-rendering="geometricPrecision"><g transform="translate(58.638794 85.71653)"><rect width="6000" height="3000" rx="0" ry="0" transform="matrix(1.006336 0 0 1.010086-77.64685-100.845557)" fill="#181818"/><g transform="matrix(3.785978 0 0 2.750379-1855.903737-1160.852484)"><g transform="matrix(1.010112 0 0 0.973651-12.859339 25.105103)" opacity="0.1"><rect width="1505.43" height="904.951" rx="0" ry="0" transform="matrix(.979761 0 0 0.984132 534.209219 507.495881)" fill="#fff"/></g><g><polygon points="1271.691,1411.433 518.871,1411.433 518.871,1310.568 536.584,1292.855 536.584,1193.84 515.957,1173.212 515.957,545.401 567.166,494.194 811.155,494.194 845.028,528.066 1271.691,528.066 1271.691,540.4 839.919,540.4 806.046,506.528 572.275,506.528 528.291,550.508 528.291,1168.105 548.918,1188.733 548.918,1297.962 531.205,1315.675 531.205,1399.1 1271.691,1399.1" fill="#fff"/></g><g><polygon points="2027.309,1411.433 1265.871,1411.433 1265.871,1399.1 2014.975,1399.1 2014.975,1315.675 1997.261,1297.962 1997.261,1188.733 2017.888,1168.105 2017.888,550.508 1973.905,506.528 1740.134,506.528 1706.26,540.4 1260.937,540.4 1260.937,528.066 1701.15,528.066 1735.025,494.194 1979.014,494.194 2030.221,545.401 2030.221,1173.212 2009.595,1193.84 2009.595,1292.855 2027.309,1310.568" fill="#fff"/></g><g><polygon points="872.422,507.496 844.054,479.128 876.122,447.06 1681.521,447.06 1710.505,476.045 1679.054,507.496" fill="#fff"/></g><g><polygon points="962.811,1405.267 983.052,1425.508 1512.548,1425.508 1533.945,1404.111" fill="#fff"/></g><g opacity="0.2"><polygon points="1102.36,1404.111 1054.638,1356.389 649.18,1356.389 605.232,1312.441 605.232,1063.752 553.203,1011.723 553.203,748.006 525.858,720.662 525.858,1169.823 545.584,1189.548 545.584,1295.628 521.802,1319.41 521.802,1404.111" fill="#fff"/></g><g opacity="0.2"><polygon points="1446.839,1404.111 1494.561,1356.389 1900.019,1356.389 1943.966,1312.441 1943.966,1063.752 1995.996,1011.723 1995.996,748.006 2023.34,720.662 2023.34,1169.823 2003.615,1189.548 2003.615,1295.628 2027.397,1319.41 2027.397,1404.111" fill="#fff"/></g></g></g></svg>
